<svg width="200" height="200" viewBox="0 0 200 200" fill="none" xmlns="http://www.w3.org/2000/svg">
<rect width="200" height="200" fill="white"/>
<path fill-rule="evenodd" clip-rule="evenodd" d="M61.9089 75.5693H56.3321V72.7624H62.0451L62.0583 72.7643C62.7692 72.8463 63.3072 73.4368 63.3072 74.1391C63.3072 74.904 62.67 75.5586 61.9089 75.5693ZM56.3321 66.359H62.1907L62.2117 66.363C62.8728 66.4801 63.3539 67.0427 63.3539 67.7019C63.3539 68.377 62.8386 69.0129 62.157 69.1054L56.3361 69.115L56.3321 66.359ZM64.6262 70.8382C66.762 70.1283 67.1493 68.3359 67.1441 66.8744C67.1403 64.6428 65.565 62.7133 60.9037 62.7133L52.2026 62.7119C52.2026 62.7119 52.2026 78.9887 52.2026 79.4773C52.682 79.4773 60.8809 79.4773 60.8809 79.4773C65.5704 79.4773 67.296 77.0695 67.296 74.6579C67.296 71.7376 64.6262 70.8382 64.6262 70.8382Z" fill="#4323C0"/>
<path fill-rule="evenodd" clip-rule="evenodd" d="M86.7793 62.7144H101.482L101.475 66.3731H90.8646L90.8753 69.0753H100.44V72.7532H90.8753V75.6779H101.486L101.484 79.5119C101.484 79.5119 87.2663 79.5119 86.7793 79.5119C86.7793 79.0239 86.7793 62.7144 86.7793 62.7144Z" fill="#4323C0"/>
<path fill-rule="evenodd" clip-rule="evenodd" d="M80.4541 67.9394C80.3811 68.491 79.8299 69.0893 79.1416 69.0893L73.4028 69.091V66.4061H79.1437C79.8299 66.4061 80.3668 66.9107 80.4541 67.5734V67.9394ZM78.2266 62.7363H69.335V79.507C69.335 79.507 72.9968 79.507 73.4177 79.507C73.4177 79.0351 73.4177 72.721 73.4177 72.721C73.4177 72.721 77.9138 72.7167 77.9144 72.7167C79.2024 72.7361 80.2038 73.7908 80.2038 75.0918V79.4923L84.2004 79.4911L84.1927 74.0784C84.1927 71.5701 81.7704 70.8295 81.7704 70.8295C81.7704 70.8295 84.2469 70.0893 84.2469 67.1248C84.2469 63.4974 81.1304 62.7363 78.2266 62.7363Z" fill="#4323C0"/>
<path fill-rule="evenodd" clip-rule="evenodd" d="M49.5548 75.4546C49.4961 75.4557 43.9734 75.5624 42.0669 75.3766C38.9966 75.0757 37.9084 72.8013 37.9084 70.9445C37.9084 68.6294 39.4864 66.926 41.9311 66.6062C43.0946 66.4536 49.4533 66.526 49.5213 66.5267L49.6544 66.5281L49.6678 62.7144L49.5334 62.7147L42.3358 62.728C41.5343 62.7772 40.2057 62.8572 38.845 63.4136C37.538 64.0129 36.4012 64.9323 35.5516 66.0765C34.4705 67.533 33.8984 69.2624 33.8984 71.0753C33.8984 71.646 33.9436 72.2118 34.0356 72.7549C34.5534 75.2979 36.2204 77.4023 38.6104 78.5338C39.4174 78.8892 40.6619 79.3148 43.1719 79.4556C43.1773 79.4556 44.5246 79.4839 44.5246 79.4839C44.5246 79.4851 49.5424 79.4893 49.5424 79.4893H49.6747L49.6889 75.4526L49.5548 75.4546Z" fill="#4323C0"/>
<path fill-rule="evenodd" clip-rule="evenodd" d="M156.33 89.771H165.956V136.839H156.972L156.33 128.06V127.744L154.454 133.658L150.334 136.798H145.575L141.089 134.555L136.561 130.028L134.277 123.339V116.527L136.561 109.838L141.089 105.311L145.575 103.027H150.008L154.454 106.453L156.33 112.061V89.771ZM156.33 114.539L149.927 112.591H148.091L145.603 113.815L143.849 116.833V123.175L145.522 125.949L148.091 127.213H149.927L156.33 125.404V114.539Z" fill="#4323C0"/>
<rect x="120.683" y="89.73" width="9.62575" height="47.0682" fill="#4323C0"/>
<path fill-rule="evenodd" clip-rule="evenodd" d="M115.378 89.73H105.752V96.9085H115.378V89.73ZM115.378 103.026H105.753V136.798H115.378V103.026Z" fill="#4323C0"/>
<path fill-rule="evenodd" clip-rule="evenodd" d="M82.3592 127.295H84.6021L90.9241 125.352V103.026H100.55V136.798H91.7476L90.9241 128.411V127.837L89.0887 134.555L84.6021 136.798H77.6385L73.0704 134.555L70.5322 127.743V103.026H80.1563V125.797L80.8526 126.821L82.3592 127.295Z" fill="#4323C0"/>
<path fill-rule="evenodd" clip-rule="evenodd" d="M54.771 136.788H33.8984V89.6997H54.9704L61.396 91.9707L63.7102 94.4511L65.8655 100.196V106.543L63.4574 110.645L61.2939 112.389L63.2202 113.524L65.8655 117.951V126.292L63.7102 132.037L61.396 134.511L54.771 136.788ZM52.4161 116.688H43.4769V127.562H53.1745L55.609 126.724L56.2876 124.933V119.999L54.7709 117.086L52.4161 116.688ZM53.2941 98.9124H43.4769V107.827H53.1346L55.5691 106.989L56.2477 105.198V101.542L55.5691 99.7099L53.2941 98.9124Z" fill="#4323C0"/>
</svg>
