<svg width="200" height="200" viewBox="0 0 200 200" fill="none" xmlns="http://www.w3.org/2000/svg">
<rect width="200" height="200" fill="white"/>
<path fill-rule="evenodd" clip-rule="evenodd" d="M32.2036 54.2245H52.7941V109.724C52.7941 118.508 56.7944 123.739 59.9577 125.982C56.6088 128.972 46.3752 131.588 38.7465 125.234C34.249 121.489 32.2036 115.331 32.2036 109.537V54.2245ZM160.886 100.327V94.4945H167.166V74.0328H160.27C157.622 61.748 146.732 52.5425 133.709 52.5425C118.706 52.5425 106.544 64.7578 106.544 79.8253V127.61C110.818 128.213 115.91 127.535 120.243 123.927C124.74 120.181 126.785 114.023 126.785 108.23V106.469H137.069V86.0073H126.785V79.8253H126.81C126.81 75.9989 129.898 72.8969 133.709 72.8969C137.519 72.8969 140.62 75.9989 140.62 79.8253V100.327C140.62 115.395 152.794 127.61 167.797 127.61V107.255C163.987 107.255 160.886 104.153 160.886 100.327ZM82.9024 74.0328V104.063C82.9024 105.767 81.4941 107.149 79.7563 107.149C78.0185 107.149 76.6102 105.767 76.6102 104.063V74.0328H56.2361V109.351C56.2361 115.704 58.3815 123.739 68.1445 126.356C77.9178 128.975 83.5874 123.553 83.5874 123.553C83.0709 127.125 79.7214 129.741 74.3258 130.302C70.2433 130.726 65.0224 129.368 62.4181 128.246V146.958C69.0542 148.923 76.0732 149.558 82.9422 148.22C95.4081 145.79 103.276 135.326 103.276 121.404V74.0328H82.9024Z" fill="#4323C0"/>
</svg>
