<svg width="118" height="118" viewBox="0 0 118 118" fill="none" xmlns="http://www.w3.org/2000/svg">
<g clip-path="url(#clip0)">
<path d="M25.8477 92.1544H33.4502V89.6683H28.4877V82.1074H25.8477V92.1544Z" fill="#4323C0"/>
<path d="M37.0332 87.1445C37.0332 90.0168 39.541 92.3613 42.5263 92.3613C45.5513 92.3613 48.0191 90.0168 48.0191 87.1445C48.0191 84.2722 45.5513 81.9277 42.5263 81.9277C39.541 81.9277 37.0332 84.2722 37.0332 87.1445ZM39.7133 87.1445C39.7133 85.6246 40.9737 84.4138 42.5263 84.4138C44.1182 84.4138 45.339 85.6246 45.339 87.1445C45.339 88.6644 44.1182 89.8752 42.5263 89.8752C40.9737 89.8752 39.7133 88.6644 39.7133 87.1445Z" fill="#4323C0"/>
<path d="M51.9473 87.1445C51.9473 90.0168 54.455 92.3613 57.4404 92.3613C60.4654 92.3613 62.9332 90.0168 62.9332 87.1445C62.9332 84.2722 60.4654 81.9277 57.4404 81.9277C54.455 81.9277 51.9473 84.2722 51.9473 87.1445ZM54.6273 87.1445C54.6273 85.6246 55.8881 84.4138 57.4404 84.4138C59.0326 84.4138 60.2531 85.6246 60.2531 87.1445C60.2531 88.6644 59.0326 89.8752 57.4404 89.8752C55.8881 89.8752 54.6273 88.6644 54.6273 87.1445Z" fill="#4323C0"/>
<path d="M67.4453 82.1074V92.1544H70.0857V89.4623H71.4392L73.4029 92.1544H76.574L74.3315 89.1146C75.7246 88.4961 76.3748 87.1826 76.3748 85.7785C76.3748 83.782 75.154 82.1074 72.5005 82.1074H67.4453ZM72.3547 84.4519C73.416 84.4519 73.814 85.0314 73.814 85.8043C73.814 86.4996 73.416 87.1309 72.3547 87.1309H70.0857V84.4519H72.3547Z" fill="#4323C0"/>
<path d="M95.207 92.1544H100.01C103.248 92.1544 104.906 89.8744 104.906 87.1309C104.906 84.4002 103.248 82.1074 100.01 82.1074H95.207V92.1544ZM99.8108 84.6062C101.39 84.6062 102.226 85.6238 102.226 87.1309C102.226 88.638 101.39 89.6683 99.8108 89.6683H97.8606V84.6062H99.8108Z" fill="#4323C0"/>
<path d="M13 92.1544H15.5633V88.7152H20.3131V86.3839H15.5633V84.6062H20.4579V82.1074H13V92.1544Z" fill="#4323C0"/>
<path d="M81.5508 92.1544H89.4983V89.6683H84.2043V88.2852H89.3763V86.1441H84.2043V84.6062H89.4983V82.1074H81.5508V92.1544Z" fill="#4323C0"/>
<path fill-rule="evenodd" clip-rule="evenodd" d="M60.4383 50.6019L54.3508 47.0873L60.4383 43.5727L66.5255 47.0873L60.4383 50.6019ZM54.3508 26L72.613 36.5435L66.5255 40.0581L48.2637 29.5146L54.3508 26Z" fill="#4323C0" fill-opacity="0.4"/>
<path fill-rule="evenodd" clip-rule="evenodd" d="M60.4606 64.6732L54.373 68.1878V61.1585V54.1293L60.4606 57.6439V64.6732ZM66.5477 47.1005V54.1293L60.4606 57.6439V50.6151L66.5477 47.1005V40.0712L72.6352 36.5566V43.5859L66.5477 47.1005ZM60.4606 43.5859L54.373 47.1005V40.0712L60.4606 43.5859Z" fill="#4323C0"/>
</g>
<defs>
<clipPath id="clip0">
<rect width="92" height="92" fill="white" transform="translate(13 13)"/>
</clipPath>
</defs>
</svg>
