<svg width="200" height="200" viewBox="0 0 200 200" fill="none" xmlns="http://www.w3.org/2000/svg">
<g clip-path="url(#clip0)">
<path d="M43.8096 156.193H56.6953V151.98H48.2843V139.165H43.8096V156.193V156.193Z" fill="#4323C0"/>
<path d="M62.7676 147.702C62.7676 152.57 67.018 156.544 72.078 156.544C77.205 156.544 81.3878 152.57 81.3878 147.702C81.3878 142.834 77.205 138.86 72.078 138.86C67.018 138.86 62.7676 142.834 62.7676 147.702ZM67.3101 147.702C67.3101 145.126 69.4464 143.074 72.078 143.074C74.7761 143.074 76.8453 145.126 76.8453 147.702C76.8453 150.278 74.7761 152.33 72.078 152.33C69.4464 152.33 67.3101 150.278 67.3101 147.702Z" fill="#4323C0"/>
<path d="M88.0459 147.702C88.0459 152.57 92.2964 156.544 97.3563 156.544C102.483 156.544 106.666 152.57 106.666 147.702C106.666 142.834 102.483 138.86 97.3563 138.86C92.2964 138.86 88.0459 142.834 88.0459 147.702ZM92.5884 147.702C92.5884 145.126 94.7253 143.074 97.3563 143.074C100.055 143.074 102.124 145.126 102.124 147.702C102.124 150.278 100.055 152.33 97.3563 152.33C94.7253 152.33 92.5884 150.278 92.5884 147.702Z" fill="#4323C0"/>
<path d="M114.314 139.165V156.193H118.789V151.63H121.083L124.412 156.193H129.786L125.986 151.041C128.347 149.993 129.449 147.767 129.449 145.387C129.449 142.003 127.38 139.165 122.882 139.165H114.314V139.165ZM122.635 143.138C124.434 143.138 125.108 144.121 125.108 145.43C125.108 146.609 124.434 147.679 122.635 147.679H118.789V143.138H122.635Z" fill="#4323C0"/>
<path d="M161.368 156.193H169.508C174.996 156.193 177.807 152.329 177.807 147.679C177.807 143.051 174.996 139.165 169.508 139.165H161.368V156.193V156.193ZM169.171 143.4C171.847 143.4 173.264 145.124 173.264 147.679C173.264 150.233 171.847 151.98 169.171 151.98H165.865V143.4H169.171Z" fill="#4323C0"/>
<path d="M22.0337 156.193H26.3782V150.364H34.4288V146.413H26.3782V143.4H34.6741V139.165H22.0337V156.193V156.193Z" fill="#4323C0"/>
<path d="M138.221 156.193H151.691V151.98H142.719V149.635H151.485V146.006H142.719V143.4H151.691V139.165H138.221V156.193V156.193Z" fill="#4323C0"/>
<path fill-rule="evenodd" clip-rule="evenodd" d="M102.438 85.7655L92.12 79.8086L102.438 73.8516L112.755 79.8086L102.438 85.7655ZM92.12 44.0674L123.073 61.9377L112.755 67.8946L81.8027 50.0243L92.12 44.0674Z" fill="#4323C0" fill-opacity="0.4"/>
<path fill-rule="evenodd" clip-rule="evenodd" d="M102.475 109.615L92.1572 115.572V103.658V91.7442L102.475 97.7011V109.615V109.615ZM112.792 79.8308V91.7442L102.475 97.7011V85.7878L112.792 79.8308V67.9169L123.11 61.96V73.8739L112.792 79.8308ZM102.475 73.8739L92.1572 79.8308V67.9169L102.475 73.8739V73.8739Z" fill="#4323C0"/>
</g>
<defs>
<clipPath id="clip0">
<rect width="155.932" height="155.932" fill="white" transform="translate(22.0337 22.0337)"/>
</clipPath>
</defs>
</svg>
