<svg width="118" height="118" viewBox="0 0 118 118" fill="none" xmlns="http://www.w3.org/2000/svg">
<path d="M30.23 40H37.1873C38.4852 40 39.7832 40.2105 41.0811 40.6314C42.379 41.0524 43.56 41.7306 44.6007 42.6426C45.6531 43.5547 46.5067 44.724 47.1498 46.1505C47.8046 47.5771 48.1203 49.2843 48.1203 51.2721C48.1203 53.2014 47.7929 54.8735 47.1498 56.2884C46.495 57.7032 45.6531 58.8725 44.6007 59.7846C43.5483 60.7083 42.379 61.3982 41.0811 61.8542C39.7832 62.3103 38.4852 62.5441 37.1873 62.5441H30.23V40ZM33.0714 59.7729H36.6261C37.8538 59.7729 38.9764 59.5858 40.017 59.1999C41.0577 58.8141 41.9581 58.2645 42.7064 57.5395C43.4665 56.8145 44.0511 55.9259 44.4721 54.8618C44.893 53.7978 45.1035 52.6051 45.1035 51.2604C45.1035 49.8572 44.893 48.6294 44.4721 47.5654C44.0511 46.5013 43.4665 45.6126 42.7064 44.9111C41.9464 44.1978 41.0577 43.6599 40.017 43.2857C38.9764 42.9116 37.8421 42.7245 36.6261 42.7245H33.0714V59.7612V59.7729Z" fill="#4323C0"/>
<path d="M51.2314 56.9081C51.2314 56.9081 53.7688 50.512 54.564 48.3722C55.3474 46.2791 57.5457 40 57.5457 40H60.6794C60.6794 40 62.7023 45.9751 63.4506 47.9746C64.2808 50.208 66.9352 56.9081 66.9352 56.9081L63.8482 56.6158H54.2249L51.2431 56.9198L51.2314 56.9081ZM55.4175 53.8328H62.6087L59.0307 43.6599L55.4175 53.8328Z" fill="#4323C0"/>
<path d="M74.5602 59.7378H83.6105V62.5441H71.7188V40H74.5602V59.7378Z" fill="#4323C0"/>
<path d="M89.2008 62.5441H86.3594V40H89.2008V62.5441Z" fill="#4323C0"/>
<path d="M30.207 72.3054V65.5469H31.8441V70.8789H34.4633V72.3054H30.207Z" fill="#4323C0"/>
<path d="M60.8309 72.3054L60.3047 70.9724H57.6854L57.1943 72.3054H55.417L58.2584 65.5469H59.8486L62.655 72.3054H60.8425H60.8309ZM59.0184 67.3476L58.1532 69.6628H59.8486L59.0067 67.3476H59.0184Z" fill="#4323C0"/>
<path d="M89.2692 70.3405C89.2692 70.7147 89.199 71.0187 89.047 71.276C88.895 71.5332 88.7079 71.732 88.4623 71.884C88.2168 72.036 87.9478 72.1413 87.6321 72.2114C87.3281 72.2816 87.0007 72.3167 86.685 72.3167H83.9956V65.5581H86.685C86.9422 65.5581 87.2112 65.5815 87.4918 65.64C87.7608 65.6984 88.018 65.792 88.2402 65.9206C88.4623 66.0492 88.6494 66.2246 88.7897 66.4468C88.9301 66.6689 89.0002 66.9496 89.0002 67.3004C89.0002 67.6745 88.895 67.9903 88.6962 68.2358C88.4974 68.4814 88.2285 68.6568 87.8894 68.762V68.7854C88.0765 68.8205 88.2636 68.8789 88.4273 68.9608C88.591 69.0426 88.743 69.1596 88.8716 69.2882C89.0002 69.4168 89.0938 69.5805 89.1639 69.7559C89.2341 69.9313 89.2692 70.1301 89.2692 70.3522V70.3405ZM87.4217 67.4991C87.4217 67.2653 87.3281 67.1016 87.1644 66.9963C86.989 66.8911 86.7318 66.8443 86.381 66.8443H85.5742V68.2358H86.4511C86.7552 68.2358 86.989 68.1773 87.1644 68.0487C87.3281 67.9201 87.4217 67.7447 87.4217 67.4991ZM87.6438 70.1885C87.6438 69.9079 87.5386 69.7091 87.3281 69.6039C87.1176 69.4986 86.837 69.4402 86.4862 69.4402H85.5742V70.9837H86.4862C86.6148 70.9837 86.7435 70.972 86.8838 70.9486C87.0241 70.9252 87.141 70.8901 87.258 70.8317C87.3632 70.7732 87.4567 70.6913 87.5269 70.5861C87.5971 70.4809 87.6321 70.3405 87.6321 70.1768L87.6438 70.1885Z" fill="#4323C0"/>
<path d="M26.7149 77.818C45.9031 77.818 54.3572 56.2561 54.3572 56.2561L51.3755 56.5601C51.3755 56.5601 42.8279 76.6019 26.8669 76.6019C10.3096 76.6019 9.64312 63.5057 9.64312 61.7518C9.64312 55.2622 14.6711 51.7777 18.5883 51.8595C20.8918 51.9063 25.6625 53.0405 25.6625 58.2088C25.6625 61.097 23.6046 61.9623 22.5756 62.1377C21.2309 62.3715 19.5003 61.7401 18.9858 60.0914C18.7169 59.2027 18.9508 57.6242 20.5878 57.5774C21.1607 57.5657 21.7688 58.0568 21.8038 58.6298C21.8155 58.9221 21.6518 59.5067 21.0672 59.5067C20.6112 59.5067 20.541 59.1559 20.5527 58.9805C20.5761 58.7116 20.8567 58.6765 20.8567 58.6765C20.8567 58.6765 20.5293 58.6531 20.5176 59.0741C20.5176 59.495 20.8918 59.5769 21.0906 59.5769C21.4531 59.5769 21.8623 59.2027 21.8857 58.6999C21.9091 58.2556 21.5466 57.4371 20.5995 57.4371C19.208 57.4371 18.6935 58.583 18.635 59.2963C18.4947 60.8047 19.6991 62.5352 22.0494 62.5352C24.6336 62.5352 26.0718 60.3019 26.0718 58.0568C26.0718 55.9404 24.5751 51.5438 18.9391 51.3567C13.1627 51.1696 9 56.1158 9 61.7635C9 64.1255 10.2161 77.7946 26.7149 77.7946V77.818Z" fill="#4323C0"/>
<path d="M91.4245 77.818C72.2363 77.818 63.7822 56.2561 63.7822 56.2561L66.7639 56.5601C66.7639 56.5601 75.3115 76.6019 91.2725 76.6019C107.83 76.6019 108.496 63.5057 108.496 61.7518C108.496 55.2622 103.468 51.7777 99.5511 51.8595C97.2476 51.9063 92.4769 53.0405 92.4769 58.2088C92.4769 61.097 94.5348 61.9623 95.5638 62.1377C96.9085 62.3715 98.6391 61.7401 99.1536 60.0914C99.4225 59.2027 99.1887 57.6242 97.5516 57.5774C96.9787 57.5657 96.3706 58.0568 96.3356 58.6298C96.3239 58.9221 96.4876 59.5067 97.0722 59.5067C97.5283 59.5067 97.5984 59.1559 97.5867 58.9805C97.5633 58.7116 97.2827 58.6765 97.2827 58.6765C97.2827 58.6765 97.6101 58.6531 97.6218 59.0741C97.6218 59.495 97.2476 59.5769 97.0488 59.5769C96.6864 59.5769 96.2771 59.2027 96.2537 58.6999C96.2303 58.2556 96.5928 57.4371 97.5399 57.4371C98.9314 57.4371 99.4459 58.583 99.5044 59.2963C99.6447 60.8047 98.4403 62.5352 96.09 62.5352C93.5059 62.5352 92.0676 60.3019 92.0676 58.0568C92.0676 55.9404 93.5643 51.5438 99.2004 51.3567C104.977 51.1696 109.139 56.1158 109.139 61.7635C109.139 64.1255 107.923 77.7946 91.4245 77.7946V77.818Z" fill="#4323C0"/>
</svg>
