<svg width="110" height="118" viewBox="0 0 110 118" fill="none" xmlns="http://www.w3.org/2000/svg">
<path fill-rule="evenodd" clip-rule="evenodd" d="M32.526 44.586H29.2356V42.9299H32.6063L32.6141 42.931C33.0335 42.9794 33.3509 43.3278 33.3509 43.7421C33.3509 44.1934 32.975 44.5796 32.526 44.586ZM29.2356 39.1517H32.6922L32.7046 39.1541C33.0947 39.2232 33.3785 39.5551 33.3785 39.9441C33.3785 40.3424 33.0744 40.7175 32.6723 40.7721L29.238 40.7778L29.2356 39.1517ZM34.1292 41.7945C35.3894 41.3757 35.6178 40.3181 35.6148 39.4559C35.6125 38.1392 34.6831 37.0008 31.9329 37.0008L26.7993 37C26.7993 37 26.7993 46.6033 26.7993 46.8916C27.0821 46.8916 31.9195 46.8916 31.9195 46.8916C34.6863 46.8916 35.7044 45.471 35.7044 44.0481C35.7044 42.3252 34.1292 41.7945 34.1292 41.7945Z" fill="#4323C0"/>
<path fill-rule="evenodd" clip-rule="evenodd" d="M47.1997 37.0015H55.8745L55.87 39.1601H49.61L49.6163 40.7544H55.2595V42.9244H49.6163V44.6499H55.8769L55.8753 46.912C55.8753 46.912 47.4871 46.912 47.1997 46.912C47.1997 46.6241 47.1997 37.0015 47.1997 37.0015Z" fill="#4323C0"/>
<path fill-rule="evenodd" clip-rule="evenodd" d="M43.4681 40.0845C43.425 40.41 43.0998 40.763 42.6937 40.763L39.3078 40.764V39.1799H42.695C43.0998 39.1799 43.4166 39.4776 43.4681 39.8686V40.0845ZM42.1538 37.0146H36.9077V46.9094C36.9077 46.9094 39.0682 46.9094 39.3166 46.9094C39.3166 46.6309 39.3166 42.9056 39.3166 42.9056C39.3166 42.9056 41.9692 42.9031 41.9696 42.9031C42.7295 42.9145 43.3203 43.5368 43.3203 44.3044V46.9007L45.6783 46.9L45.6738 43.7065C45.6738 42.2266 44.2446 41.7896 44.2446 41.7896C44.2446 41.7896 45.7058 41.3529 45.7058 39.6038C45.7058 37.4637 43.867 37.0146 42.1538 37.0146Z" fill="#4323C0"/>
<path fill-rule="evenodd" clip-rule="evenodd" d="M25.2373 44.5182C25.2026 44.5189 21.9443 44.5818 20.8194 44.4722C19.0079 44.2947 18.3659 42.9527 18.3659 41.8572C18.3659 40.4913 19.2969 39.4864 20.7393 39.2977C21.4257 39.2076 25.1774 39.2503 25.2175 39.2508L25.296 39.2516L25.304 37.0015L25.2246 37.0017L20.978 37.0095C20.5051 37.0385 19.7213 37.0858 18.9185 37.414C18.1474 37.7676 17.4766 38.3101 16.9754 38.9851C16.3375 39.8444 16 40.8648 16 41.9344C16 42.2711 16.0267 42.6049 16.0809 42.9254C16.3864 44.4258 17.37 45.6673 18.78 46.3349C19.2562 46.5447 19.9904 46.7957 21.4714 46.8788C21.4745 46.8788 22.2695 46.8955 22.2695 46.8955C22.2695 46.8962 25.2299 46.8987 25.2299 46.8987H25.308L25.3164 44.5171L25.2373 44.5182Z" fill="#4323C0"/>
<path fill-rule="evenodd" clip-rule="evenodd" d="M88.2348 52.9648H93.914V80.7351H88.6133L88.2348 75.5555V75.3693L87.1278 78.8581L84.6973 80.711H81.8895L79.2424 79.3875L76.5712 76.7163L75.2236 72.7698V68.751L76.5712 64.8045L79.2424 62.1333L81.8895 60.7857H84.5048L87.1278 62.8071L88.2348 66.1159V52.9648ZM88.2348 67.5778L84.4566 66.4288H83.3737L81.9058 67.1508L80.8711 68.9315V72.6735L81.8577 74.3099L83.3737 75.0559H84.4566L88.2348 73.9886V67.5778Z" fill="#4323C0"/>
<rect x="67.2026" y="52.9404" width="5.67918" height="27.7703" fill="#4323C0"/>
<path fill-rule="evenodd" clip-rule="evenodd" d="M64.0732 52.9404H58.394V57.1758H64.0732V52.9404ZM64.0735 60.7854H58.3943V80.7107H64.0735V60.7854Z" fill="#4323C0"/>
<path fill-rule="evenodd" clip-rule="evenodd" d="M44.5917 75.1039H45.915L49.645 73.9576V60.7858H55.3242V80.711H50.1308L49.645 75.7624V75.4237L48.5621 79.3874L45.915 80.7109H41.8065L39.1113 79.3874L37.6138 75.3686V60.7856H43.292V74.2205L43.7028 74.8245L44.5917 75.1039Z" fill="#4323C0"/>
<path fill-rule="evenodd" clip-rule="evenodd" d="M28.3148 80.7051H16V52.9229H28.4324L32.2235 54.2627L33.5889 55.7262L34.8606 59.1157V62.8602L33.4398 65.2807L32.1633 66.3095L33.2998 66.9795L34.8606 69.5914V74.5122L33.5889 77.9018L32.2235 79.3613L28.3148 80.7051ZM26.9254 68.8457H21.6513V75.2619H27.3728L28.8092 74.7674L29.2095 73.7107V70.7997L28.3147 69.081L26.9254 68.8457ZM27.4434 58.3583H21.6513V63.618H27.3493L28.7856 63.1236L29.186 62.0668V59.9095L28.7856 58.8288L27.4434 58.3583Z" fill="#4323C0"/>
</svg>
