<svg width="200" height="200" viewBox="0 0 200 200" fill="none" xmlns="http://www.w3.org/2000/svg">
<rect width="200" height="200" fill="white"/>
<path d="M51.2373 67.7964H63.0294C65.2293 67.7964 67.4292 68.1531 69.629 68.8666C71.8289 69.5801 73.8306 70.7295 75.5944 72.2754C77.3781 73.8213 78.8249 75.8031 79.9149 78.221C81.0248 80.6389 81.5599 83.5324 81.5599 86.9016C81.5599 90.1717 81.0049 93.0057 79.9149 95.4038C78.8051 97.8018 77.3781 99.7837 75.5944 101.33C73.8108 102.895 71.8289 104.065 69.629 104.837C67.4292 105.61 65.2293 106.007 63.0294 106.007H51.2373V67.7964ZM56.0532 101.31H62.0781C64.1591 101.31 66.0617 100.993 67.8255 100.339C69.5894 99.6846 71.1154 98.7531 72.3838 97.5244C73.672 96.2956 74.663 94.7894 75.3764 92.9859C76.0899 91.1824 76.4466 89.1609 76.4466 86.8818C76.4466 84.5035 76.0899 82.4226 75.3764 80.6191C74.663 78.8156 73.672 77.3093 72.3838 76.1202C71.0956 74.9113 69.5894 73.9996 67.8255 73.3654C66.0617 72.7312 64.1393 72.4141 62.0781 72.4141H56.0532V101.29V101.31Z" fill="#4323C0"/>
<path d="M86.833 96.4542C86.833 96.4542 91.1337 85.6134 92.4813 81.9865C93.8092 78.439 97.5351 67.7964 97.5351 67.7964H102.846C102.846 67.7964 106.275 77.9237 107.544 81.3127C108.951 85.0981 113.449 96.4542 113.449 96.4542L108.217 95.9587H91.9066L86.8528 96.474L86.833 96.4542ZM93.9281 91.2419H106.117L100.052 73.9996L93.9281 91.2419Z" fill="#4323C0"/>
<path d="M126.374 101.25H141.713V106.007H121.558V67.7964H126.374V101.25Z" fill="#4323C0"/>
<path d="M151.188 106.007H146.372V67.7964H151.188V106.007Z" fill="#4323C0"/>
<path d="M51.1982 122.551V111.096H53.9729V120.134H58.4122V122.551H51.1982Z" fill="#4323C0"/>
<path d="M103.103 122.551L102.211 120.292H97.7721L96.9397 122.551H93.9272L98.7432 111.096H101.439L106.195 122.551H103.123H103.103ZM100.031 114.148L98.5648 118.072H101.439L100.012 114.148H100.031Z" fill="#4323C0"/>
<path d="M151.304 119.221C151.304 119.855 151.185 120.371 150.927 120.807C150.67 121.243 150.353 121.579 149.936 121.837C149.52 122.095 149.064 122.273 148.529 122.392C148.014 122.511 147.459 122.57 146.924 122.57H142.366V111.115H146.924C147.36 111.115 147.816 111.155 148.292 111.254C148.747 111.353 149.183 111.512 149.56 111.73C149.936 111.948 150.254 112.245 150.491 112.621C150.729 112.998 150.848 113.474 150.848 114.068C150.848 114.702 150.67 115.238 150.333 115.654C149.996 116.07 149.54 116.367 148.965 116.546V116.585C149.282 116.645 149.6 116.744 149.877 116.882C150.154 117.021 150.412 117.219 150.63 117.437C150.848 117.655 151.007 117.933 151.126 118.23C151.244 118.527 151.304 118.864 151.304 119.241V119.221ZM148.173 114.405C148.173 114.009 148.014 113.731 147.737 113.553C147.439 113.375 147.003 113.295 146.409 113.295H145.041V115.654H146.528C147.043 115.654 147.439 115.555 147.737 115.337C148.014 115.119 148.173 114.821 148.173 114.405ZM148.549 118.963C148.549 118.488 148.371 118.151 148.014 117.972C147.657 117.794 147.182 117.695 146.587 117.695H145.041V120.311H146.587C146.805 120.311 147.023 120.291 147.261 120.252C147.499 120.212 147.697 120.153 147.895 120.053C148.073 119.954 148.232 119.816 148.351 119.637C148.47 119.459 148.529 119.221 148.529 118.944L148.549 118.963Z" fill="#4323C0"/>
<path d="M45.2797 131.895C77.8021 131.895 92.131 95.3494 92.131 95.3494L87.0772 95.8646C87.0772 95.8646 72.5898 129.834 45.5373 129.834C17.4741 129.834 16.3444 107.637 16.3444 104.664C16.3444 93.6648 24.8664 87.7588 31.5057 87.8975C35.41 87.9768 43.496 89.8992 43.496 98.6591C43.496 103.554 40.0079 105.021 38.2639 105.318C35.9847 105.715 33.0516 104.644 32.1795 101.85C31.7237 100.344 32.1201 97.6681 34.8947 97.5889C35.8658 97.569 36.8964 98.4014 36.9558 99.3725C36.9756 99.868 36.6982 100.859 35.7073 100.859C34.9343 100.859 34.8154 100.264 34.8352 99.9671C34.8749 99.5113 35.3505 99.4518 35.3505 99.4518C35.3505 99.4518 34.7956 99.4122 34.7758 100.126C34.7758 100.839 35.41 100.978 35.7469 100.978C36.3613 100.978 37.0549 100.344 37.0946 99.4915C37.1342 98.7383 36.5198 97.351 34.9145 97.351C32.5561 97.351 31.6841 99.2933 31.585 100.502C31.3471 103.059 33.3885 105.992 37.372 105.992C41.7519 105.992 44.1896 102.207 44.1896 98.4014C44.1896 94.8142 41.6529 87.3624 32.1003 87.0453C22.3098 86.7282 15.2544 95.1115 15.2544 104.684C15.2544 108.687 17.3155 131.855 45.2797 131.855V131.895Z" fill="#4323C0"/>
<path d="M154.957 131.895C122.434 131.895 108.105 95.3494 108.105 95.3494L113.159 95.8646C113.159 95.8646 127.647 129.834 154.699 129.834C182.762 129.834 183.892 107.637 183.892 104.664C183.892 93.6648 175.37 87.7588 168.731 87.8975C164.826 87.9768 156.74 89.8992 156.74 98.6591C156.74 103.554 160.229 105.021 161.973 105.318C164.252 105.715 167.185 104.644 168.057 101.85C168.513 100.344 168.116 97.6681 165.342 97.5889C164.371 97.569 163.34 98.4014 163.281 99.3725C163.261 99.868 163.538 100.859 164.529 100.859C165.302 100.859 165.421 100.264 165.401 99.9671C165.362 99.5113 164.886 99.4518 164.886 99.4518C164.886 99.4518 165.441 99.4122 165.461 100.126C165.461 100.839 164.826 100.978 164.49 100.978C163.875 100.978 163.182 100.344 163.142 99.4915C163.102 98.7383 163.717 97.351 165.322 97.351C167.68 97.351 168.552 99.2933 168.651 100.502C168.889 103.059 166.848 105.992 162.864 105.992C158.485 105.992 156.047 102.207 156.047 98.4014C156.047 94.8142 158.584 87.3624 168.136 87.0453C177.927 86.7282 184.982 95.1115 184.982 104.684C184.982 108.687 182.921 131.855 154.957 131.855V131.895Z" fill="#4323C0"/>
</svg>
