<svg width="110" height="118" viewBox="0 0 110 118" fill="none" xmlns="http://www.w3.org/2000/svg">
<rect width="110" height="118" fill="white"/>
<path fill-rule="evenodd" clip-rule="evenodd" d="M15 32.9924H27.1484V65.7374C27.1484 70.9194 29.5086 74.0062 31.3749 75.3294C29.399 77.0934 23.3612 78.637 18.8603 74.8882C16.2068 72.6785 15 69.045 15 65.627V32.9924ZM90.9227 60.1929V56.7517H94.6278V44.6793H90.5589C88.9969 37.4312 82.5719 32 74.8881 32C66.0362 32 58.8607 39.207 58.8607 48.0969V76.2897C61.3826 76.6457 64.3869 76.2455 66.9431 74.1166C69.5963 71.9065 70.803 68.2734 70.803 64.8554V63.8167H76.8704V51.7442H70.803V48.0969H70.8176C70.8176 45.8393 72.6398 44.0091 74.8881 44.0091C77.1359 44.0091 78.9654 45.8393 78.9654 48.0969V60.1929C78.9654 69.0827 86.1486 76.2897 95 76.2897V64.2806C92.7522 64.2806 90.9227 62.4504 90.9227 60.1929ZM44.9123 44.6793V62.3969C44.9123 63.4027 44.0814 64.2181 43.0561 64.2181C42.0308 64.2181 41.1999 63.4027 41.1999 62.3969V44.6793H29.1792V65.517C29.1792 69.2654 30.445 74.0062 36.2051 75.5498C41.9714 77.095 45.3164 73.8962 45.3164 73.8962C45.0117 76.0036 43.0355 77.5472 39.8521 77.878C37.4434 78.128 34.3631 77.3268 32.8265 76.6652V87.7051C36.7418 88.8647 40.883 89.2393 44.9357 88.4495C52.2907 87.0163 56.9326 80.8422 56.9326 72.6282V44.6793H44.9123Z" fill="#4323C0"/>
</svg>
