<svg width="165" height="9" viewBox="0 0 165 9" fill="none" xmlns="http://www.w3.org/2000/svg">
<path d="M4.5 9C6.98528 9 9 6.98528 9 4.5C9 2.01472 6.98528 0 4.5 0C2.01472 0 0 2.01472 0 4.5C0 6.98528 2.01472 9 4.5 9Z" fill="#CFD941"/>
<path d="M26.7861 9C29.2714 9 31.2861 6.98528 31.2861 4.5C31.2861 2.01472 29.2714 0 26.7861 0C24.3009 0 22.2861 2.01472 22.2861 4.5C22.2861 6.98528 24.3009 9 26.7861 9Z" fill="#CFD941"/>
<path d="M49.0708 9C51.5561 9 53.5708 6.98528 53.5708 4.5C53.5708 2.01472 51.5561 0 49.0708 0C46.5855 0 44.5708 2.01472 44.5708 4.5C44.5708 6.98528 46.5855 9 49.0708 9Z" fill="#CFD941"/>
<path d="M71.3569 9C73.8422 9 75.8569 6.98528 75.8569 4.5C75.8569 2.01472 73.8422 0 71.3569 0C68.8717 0 66.8569 2.01472 66.8569 4.5C66.8569 6.98528 68.8717 9 71.3569 9Z" fill="#CFD941"/>
<path d="M93.6431 9C96.1283 9 98.1431 6.98528 98.1431 4.5C98.1431 2.01472 96.1283 0 93.6431 0C91.1578 0 89.1431 2.01472 89.1431 4.5C89.1431 6.98528 91.1578 9 93.6431 9Z" fill="#CFD941"/>
<path d="M115.929 9C118.414 9 120.429 6.98528 120.429 4.5C120.429 2.01472 118.414 0 115.929 0C113.444 0 111.429 2.01472 111.429 4.5C111.429 6.98528 113.444 9 115.929 9Z" fill="#CFD941"/>
<path d="M138.214 9C140.699 9 142.714 6.98528 142.714 4.5C142.714 2.01472 140.699 0 138.214 0C135.729 0 133.714 2.01472 133.714 4.5C133.714 6.98528 135.729 9 138.214 9Z" fill="#CFD941"/>
<path d="M160.5 9C162.985 9 165 6.98528 165 4.5C165 2.01472 162.985 0 160.5 0C158.015 0 156 2.01472 156 4.5C156 6.98528 158.015 9 160.5 9Z" fill="#CFD941"/>
</svg>
