<svg width="125" height="9" viewBox="0 0 125 9" fill="none" xmlns="http://www.w3.org/2000/svg">
<path d="M4.5 9C6.98528 9 9 6.98528 9 4.5C9 2.01472 6.98528 0 4.5 0C2.01472 0 0 2.01472 0 4.5C0 6.98528 2.01472 9 4.5 9Z" fill="#FF9E2B"/>
<path d="M27.7 9C30.1853 9 32.2 6.98528 32.2 4.5C32.2 2.01472 30.1853 0 27.7 0C25.2147 0 23.2 2.01472 23.2 4.5C23.2 6.98528 25.2147 9 27.7 9Z" fill="#FF9E2B"/>
<path d="M50.9 9C53.3853 9 55.4 6.98528 55.4 4.5C55.4 2.01472 53.3853 0 50.9 0C48.4147 0 46.4 2.01472 46.4 4.5C46.4 6.98528 48.4147 9 50.9 9Z" fill="#FF9E2B"/>
<path d="M74.1 9C76.5853 9 78.6 6.98528 78.6 4.5C78.6 2.01472 76.5853 0 74.1 0C71.6147 0 69.6 2.01472 69.6 4.5C69.6 6.98528 71.6147 9 74.1 9Z" fill="#FF9E2B"/>
<path d="M97.3 9C99.7853 9 101.8 6.98528 101.8 4.5C101.8 2.01472 99.7853 0 97.3 0C94.8147 0 92.8 2.01472 92.8 4.5C92.8 6.98528 94.8147 9 97.3 9Z" fill="#FF9E2B"/>
<path d="M120.5 9C122.985 9 125 6.98528 125 4.5C125 2.01472 122.985 0 120.5 0C118.015 0 116 2.01472 116 4.5C116 6.98528 118.015 9 120.5 9Z" fill="#FF9E2B"/>
<path d="M4.5 9C6.98528 9 9 6.98528 9 4.5C9 2.01472 6.98528 0 4.5 0C2.01472 0 0 2.01472 0 4.5C0 6.98528 2.01472 9 4.5 9Z" fill="#FDC130"/>
<path d="M27.7 9C30.1853 9 32.2 6.98528 32.2 4.5C32.2 2.01472 30.1853 0 27.7 0C25.2147 0 23.2 2.01472 23.2 4.5C23.2 6.98528 25.2147 9 27.7 9Z" fill="#FDC130"/>
<path d="M50.9 9C53.3853 9 55.4 6.98528 55.4 4.5C55.4 2.01472 53.3853 0 50.9 0C48.4147 0 46.4 2.01472 46.4 4.5C46.4 6.98528 48.4147 9 50.9 9Z" fill="#FDC130"/>
<path d="M74.1 9C76.5853 9 78.6 6.98528 78.6 4.5C78.6 2.01472 76.5853 0 74.1 0C71.6147 0 69.6 2.01472 69.6 4.5C69.6 6.98528 71.6147 9 74.1 9Z" fill="#FDC130"/>
<path d="M97.3 9C99.7853 9 101.8 6.98528 101.8 4.5C101.8 2.01472 99.7853 0 97.3 0C94.8147 0 92.8 2.01472 92.8 4.5C92.8 6.98528 94.8147 9 97.3 9Z" fill="#FDC130"/>
<path d="M120.5 9C122.985 9 125 6.98528 125 4.5C125 2.01472 122.985 0 120.5 0C118.015 0 116 2.01472 116 4.5C116 6.98528 118.015 9 120.5 9Z" fill="#FDC130"/>
</svg>
