<svg width="74" height="54" viewBox="0 0 74 54" fill="none" xmlns="http://www.w3.org/2000/svg">
<path d="M4.5 9C6.98528 9 9 6.98528 9 4.5C9 2.01472 6.98528 0 4.5 0C2.01472 0 0 2.01472 0 4.5C0 6.98528 2.01472 9 4.5 9Z" fill="#CFD941"/>
<path d="M26.167 9C28.6523 9 30.667 6.98528 30.667 4.5C30.667 2.01472 28.6523 0 26.167 0C23.6817 0 21.667 2.01472 21.667 4.5C21.667 6.98528 23.6817 9 26.167 9Z" fill="#CFD941"/>
<path d="M47.833 9C50.3183 9 52.333 6.98528 52.333 4.5C52.333 2.01472 50.3183 0 47.833 0C45.3477 0 43.333 2.01472 43.333 4.5C43.333 6.98528 45.3477 9 47.833 9Z" fill="#CFD941"/>
<path d="M69.5 9C71.9853 9 74 6.98528 74 4.5C74 2.01472 71.9853 0 69.5 0C67.0147 0 65 2.01472 65 4.5C65 6.98528 67.0147 9 69.5 9Z" fill="#CFD941"/>
<path d="M4.5 54C6.98528 54 9 51.9853 9 49.5C9 47.0147 6.98528 45 4.5 45C2.01472 45 0 47.0147 0 49.5C0 51.9853 2.01472 54 4.5 54Z" fill="#CFD941"/>
<path d="M26.167 54C28.6523 54 30.667 51.9853 30.667 49.5C30.667 47.0147 28.6523 45 26.167 45C23.6817 45 21.667 47.0147 21.667 49.5C21.667 51.9853 23.6817 54 26.167 54Z" fill="#CFD941"/>
<path d="M47.833 54C50.3183 54 52.333 51.9853 52.333 49.5C52.333 47.0147 50.3183 45 47.833 45C45.3477 45 43.333 47.0147 43.333 49.5C43.333 51.9853 45.3477 54 47.833 54Z" fill="#CFD941"/>
<path d="M69.5 54C71.9853 54 74 51.9853 74 49.5C74 47.0147 71.9853 45 69.5 45C67.0147 45 65 47.0147 65 49.5C65 51.9853 67.0147 54 69.5 54Z" fill="#CFD941"/>
<path d="M4.5 31.5C6.98528 31.5 9 29.4853 9 27C9 24.5147 6.98528 22.5 4.5 22.5C2.01472 22.5 0 24.5147 0 27C0 29.4853 2.01472 31.5 4.5 31.5Z" fill="#CFD941"/>
<path d="M26.167 31.5C28.6523 31.5 30.667 29.4853 30.667 27C30.667 24.5147 28.6523 22.5 26.167 22.5C23.6817 22.5 21.667 24.5147 21.667 27C21.667 29.4853 23.6817 31.5 26.167 31.5Z" fill="#CFD941"/>
<path d="M47.833 31.5C50.3183 31.5 52.333 29.4853 52.333 27C52.333 24.5147 50.3183 22.5 47.833 22.5C45.3477 22.5 43.333 24.5147 43.333 27C43.333 29.4853 45.3477 31.5 47.833 31.5Z" fill="#CFD941"/>
<path d="M69.5 31.5C71.9853 31.5 74 29.4853 74 27C74 24.5147 71.9853 22.5 69.5 22.5C67.0147 22.5 65 24.5147 65 27C65 29.4853 67.0147 31.5 69.5 31.5Z" fill="#CFD941"/>
</svg>
