<svg width="72" height="93" viewBox="0 0 72 93" fill="none" xmlns="http://www.w3.org/2000/svg">
<g clip-path="url(#clip0)">
<path d="M24.3185 79.4446L18.8847 75.2329L36.8151 52.0998L34.3366 50.1787L26.4058 60.4106L21.2263 56.396L29.157 46.1641L26.456 44.0705L20.5203 51.7286L15.3408 47.714L23.2469 37.5138L20.5459 35.4203L14.6102 43.0784L12.1316 41.1573L14.0774 38.6469L11.4717 36.6273L25.4121 18.6419L28.0177 20.6616L34.0274 12.9082L36.5059 14.8293L40.422 9.77684L61.3944 26.0324L57.4782 31.0848L60.1792 33.1784L56.1892 38.3261L58.6042 40.198L54.5896 45.3775L57.227 47.4217L53.2863 52.5059L56.019 54.6241L54.0487 57.1662L56.5908 59.1366L52.5761 64.3161L47.3013 60.2276L49.2716 57.6855L46.6342 55.6412L52.6192 47.9196L50.2042 46.0477L24.3185 79.4446Z" fill="#E4E6E8"/>
<path fill-rule="evenodd" clip-rule="evenodd" d="M17.2313 77.5631L22.7286 81.824L24.6004 79.409L27.1107 81.3548L44.918 58.3806L47.333 60.2524L45.3626 62.7945L53.2749 68.9273L59.383 61.0468L56.9045 59.1257L58.8256 56.6471L56.1882 54.6029L60.055 49.614L57.4494 47.5943L61.4394 42.4466L58.8337 40.427L62.7744 35.3428L60.2006 33.3478L66.1609 25.6579L63.3646 23.4905L63.34 23.5223L42.6219 7.46375L42.6465 7.43197L39.8502 5.26457L33.8898 12.9544L31.2524 10.9102L25.3167 18.5682L22.7428 16.5732L8.77777 34.5904L11.3834 36.61L9.48694 39.0568L12.0926 41.0764L10.1469 43.5867L15.4217 47.6753L13.3775 50.3127L21.2262 56.3962L19.2804 58.9065L24.46 62.9212L16.5292 73.1531L19.1031 75.1481L17.2313 77.5631ZM61.2957 26.1597L40.5776 10.1012L36.6861 15.1218L34.0487 13.0776L27.9406 20.9581L25.3667 18.9631L11.7219 36.5671L14.3275 38.5868L12.3818 41.0971L14.7968 42.9689L20.6586 35.4062L23.4549 37.5736L15.5488 47.7738L20.633 51.7145L26.5934 44.0247L29.3897 46.1921L21.4836 56.3922L26.5042 60.2837L34.4104 50.0836L37.1749 52.2263L19.3184 75.2641L24.3708 79.1802L50.0842 46.0058L52.8487 48.1486L46.9622 55.7431L49.5679 57.7628L47.5975 60.3049L52.6499 64.221L56.5168 59.2321L53.9111 57.2125L55.9061 54.6386L53.2687 52.5943L57.2587 47.4466L54.653 45.4269L58.5938 40.3427L55.9881 38.3231L59.9781 33.1754L57.4043 31.1804L61.2957 26.1597Z" fill="black"/>
</g>
<defs>
<clipPath id="clip0">
<path d="M0 0H72V93H0V0Z" fill="white"/>
</clipPath>
</defs>
</svg>
