<svg width="464" height="291" viewBox="0 0 464 291" fill="none" xmlns="http://www.w3.org/2000/svg">
<g clip-path="url(#clip0)">
<path d="M461.207 290.339C461.207 290.339 458.658 292.655 456.751 288.617C454.844 284.579 446.021 264.17 434.464 250.433C422.905 236.696 410.885 220.952 389.002 221.878C367.118 222.804 360.492 213.852 353.402 207.215C346.314 200.577 340.149 196.565 321.811 198.88C303.471 201.195 303.471 216.939 284.516 221.106C265.561 225.274 255.082 224.811 231.966 208.758C208.849 192.705 191.897 206.751 172.48 209.684C153.062 212.617 139.816 207.224 122.568 199.324C105.32 191.425 89.192 173.962 81.782 148.423C74.372 122.883 79.603 117.208 34.925 103.673C-9.753 90.14 -0.652997 40.43 4.168 26.759C8.99 13.085 47.205 0.936037 47.205 0.936037C47.205 0.936037 74.155 0.861036 91.59 30.984C109.025 61.108 128.858 68.966 144.114 62.854C159.37 56.742 174.19 48.229 204.266 65.474C234.342 82.718 268.994 134.671 280.327 143.62C291.66 152.57 460.541 210.912 461.207 290.339Z" fill="#AFBC00"/>
<path d="M39.0398 -0.000240448C42.9776 -0.0150783 46.8894 0.63645 50.6098 1.92676C74.6508 10.2618 72.0008 18.9058 82.1718 42.9848C92.3438 67.0638 113.634 71.5908 143.093 62.2508C186.949 48.3468 204.883 90.5688 217.343 101.709C242.266 123.525 309.8 136.623 357.261 156.28C425.777 184.657 455.115 241.171 461.279 263.553C467.443 285.933 461.206 290.339 461.206 290.339C458.818 292.499 457.272 283.927 451.724 269.263C446.177 254.6 432.307 232.837 423.214 228.67C414.122 224.502 408.573 215.549 398.402 211.999C388.231 208.449 386.69 213.389 367.889 194.867C349.088 176.344 332.752 170.788 304.396 197.337C276.04 223.885 255.082 226.663 245.22 209.993C235.357 193.323 211.623 175.109 183.884 193.323C156.144 211.536 123.164 210.919 103.131 180.666C83.0958 150.413 98.8158 122.63 71.0758 108.121C43.3358 93.6108 7.89281 99.4778 2.03581 55.9508C-2.90419 19.2228 17.9578 0.0797595 39.0398 -0.000240448ZM49.5018 51.3198C49.5018 51.3198 50.2668 52.5928 52.3098 54.9548C62.1728 67.1528 100.037 108.685 182.96 143.313C281.28 184.37 322.559 179.363 322.559 179.363C322.559 179.363 256.314 170.787 160.151 123.864C84.8218 87.1078 59.6978 63.4928 52.3108 54.9538C50.4788 52.6898 49.5018 51.3188 49.5018 51.3188V51.3198Z" fill="#C5D30A"/>
</g>
<defs>
<clipPath id="clip0">
<path d="M0 0H464V291H0V0Z" fill="white"/>
</clipPath>
</defs>
</svg>
